<mxfile host="app.diagrams.net" modified="2023-06-11T14:55:44.565Z" agent="Mozilla/5.0 (Macintosh; Intel Mac OS X 10_15_7) AppleWebKit/537.36 (KHTML, like Gecko) Chrome/114.0.0.0 Safari/537.36" etag="fpuZ6-6-bpu7TLuoC6l2" version="21.3.8" type="github">
  <diagram name="第 1 页" id="8mYS2NdwizBEsohXFsSD">
    <mxGraphModel dx="794" dy="548" grid="1" gridSize="10" guides="1" tooltips="1" connect="1" arrows="1" fold="1" page="1" pageScale="1" pageWidth="827" pageHeight="1169" math="0" shadow="0">
      <root>
        <mxCell id="0" />
        <mxCell id="1" parent="0" />
        <mxCell id="gKutuNkxbsZDPIlpI9aO-4" value="" style="whiteSpace=wrap;html=1;fillColor=#dae8fc;strokeColor=#6c8ebf;" vertex="1" parent="1">
          <mxGeometry x="90" y="91" width="130" height="479" as="geometry" />
        </mxCell>
        <mxCell id="gKutuNkxbsZDPIlpI9aO-1" value="发起请购/采购记录" style="rounded=0;whiteSpace=wrap;html=1;fillColor=#fff2cc;strokeColor=#d6b656;" vertex="1" parent="1">
          <mxGeometry x="116" y="131" width="80" height="30" as="geometry" />
        </mxCell>
        <mxCell id="gKutuNkxbsZDPIlpI9aO-7" value="HIS" style="rounded=0;whiteSpace=wrap;html=1;fillColor=#f8cecc;strokeColor=#b85450;" vertex="1" parent="1">
          <mxGeometry x="90" y="91" width="130" height="20" as="geometry" />
        </mxCell>
        <mxCell id="gKutuNkxbsZDPIlpI9aO-10" value="" style="whiteSpace=wrap;html=1;fillColor=#dae8fc;strokeColor=#6c8ebf;" vertex="1" parent="1">
          <mxGeometry x="310" y="91" width="130" height="479" as="geometry" />
        </mxCell>
        <mxCell id="gKutuNkxbsZDPIlpI9aO-12" value="总控" style="rounded=0;whiteSpace=wrap;html=1;fillColor=#f8cecc;strokeColor=#b85450;" vertex="1" parent="1">
          <mxGeometry x="310" y="91" width="130" height="20" as="geometry" />
        </mxCell>
        <mxCell id="gKutuNkxbsZDPIlpI9aO-29" style="edgeStyle=orthogonalEdgeStyle;rounded=0;orthogonalLoop=1;jettySize=auto;html=1;" edge="1" parent="1" source="gKutuNkxbsZDPIlpI9aO-13" target="gKutuNkxbsZDPIlpI9aO-28">
          <mxGeometry relative="1" as="geometry">
            <Array as="points">
              <mxPoint x="380" y="195" />
            </Array>
          </mxGeometry>
        </mxCell>
        <mxCell id="gKutuNkxbsZDPIlpI9aO-30" value="返回流程编号" style="edgeLabel;html=1;align=center;verticalAlign=middle;resizable=0;points=[];" vertex="1" connectable="0" parent="gKutuNkxbsZDPIlpI9aO-29">
          <mxGeometry x="0.1743" y="-1" relative="1" as="geometry">
            <mxPoint x="-20" y="1" as="offset" />
          </mxGeometry>
        </mxCell>
        <mxCell id="gKutuNkxbsZDPIlpI9aO-13" value="生成审核流程" style="rounded=0;whiteSpace=wrap;html=1;fillColor=#fff2cc;strokeColor=#d6b656;" vertex="1" parent="1">
          <mxGeometry x="335" y="176" width="80" height="30" as="geometry" />
        </mxCell>
        <mxCell id="gKutuNkxbsZDPIlpI9aO-23" style="edgeStyle=orthogonalEdgeStyle;rounded=0;orthogonalLoop=1;jettySize=auto;html=1;" edge="1" parent="1" source="gKutuNkxbsZDPIlpI9aO-19" target="gKutuNkxbsZDPIlpI9aO-1">
          <mxGeometry relative="1" as="geometry" />
        </mxCell>
        <mxCell id="gKutuNkxbsZDPIlpI9aO-25" style="edgeStyle=orthogonalEdgeStyle;rounded=0;orthogonalLoop=1;jettySize=auto;html=1;" edge="1" parent="1" source="gKutuNkxbsZDPIlpI9aO-1" target="gKutuNkxbsZDPIlpI9aO-13">
          <mxGeometry relative="1" as="geometry">
            <Array as="points">
              <mxPoint x="156" y="191" />
            </Array>
          </mxGeometry>
        </mxCell>
        <mxCell id="gKutuNkxbsZDPIlpI9aO-19" value="Actor" style="shape=umlActor;verticalLabelPosition=bottom;verticalAlign=top;html=1;outlineConnect=0;" vertex="1" parent="1">
          <mxGeometry x="20" y="116" width="30" height="60" as="geometry" />
        </mxCell>
        <mxCell id="gKutuNkxbsZDPIlpI9aO-40" style="edgeStyle=orthogonalEdgeStyle;rounded=0;orthogonalLoop=1;jettySize=auto;html=1;entryX=0;entryY=0.5;entryDx=0;entryDy=0;" edge="1" parent="1" source="gKutuNkxbsZDPIlpI9aO-28" target="gKutuNkxbsZDPIlpI9aO-39">
          <mxGeometry relative="1" as="geometry">
            <Array as="points">
              <mxPoint x="156" y="292" />
            </Array>
          </mxGeometry>
        </mxCell>
        <mxCell id="gKutuNkxbsZDPIlpI9aO-28" value="请购、采购记录关联流程编号" style="rounded=0;whiteSpace=wrap;html=1;fillColor=#fff2cc;strokeColor=#d6b656;" vertex="1" parent="1">
          <mxGeometry x="116" y="226" width="80" height="54" as="geometry" />
        </mxCell>
        <mxCell id="gKutuNkxbsZDPIlpI9aO-38" value="未生效的" style="whiteSpace=wrap;html=1;shape=mxgraph.basic.oval_callout;fillColor=#fad7ac;strokeColor=#b46504;" vertex="1" parent="1">
          <mxGeometry x="400" y="130" width="90" height="41" as="geometry" />
        </mxCell>
        <mxCell id="gKutuNkxbsZDPIlpI9aO-48" value="" style="edgeStyle=orthogonalEdgeStyle;rounded=0;orthogonalLoop=1;jettySize=auto;html=1;" edge="1" parent="1" source="gKutuNkxbsZDPIlpI9aO-39" target="gKutuNkxbsZDPIlpI9aO-46">
          <mxGeometry relative="1" as="geometry" />
        </mxCell>
        <mxCell id="gKutuNkxbsZDPIlpI9aO-39" value="申请发起审批" style="rounded=0;whiteSpace=wrap;html=1;fillColor=#fff2cc;strokeColor=#d6b656;" vertex="1" parent="1">
          <mxGeometry x="335" y="277" width="80" height="30" as="geometry" />
        </mxCell>
        <mxCell id="gKutuNkxbsZDPIlpI9aO-52" style="edgeStyle=orthogonalEdgeStyle;rounded=0;orthogonalLoop=1;jettySize=auto;html=1;" edge="1" parent="1" source="gKutuNkxbsZDPIlpI9aO-46" target="gKutuNkxbsZDPIlpI9aO-51">
          <mxGeometry relative="1" as="geometry" />
        </mxCell>
        <mxCell id="gKutuNkxbsZDPIlpI9aO-53" value="返回审批状态&lt;br&gt;审批结论等信息" style="edgeLabel;html=1;align=center;verticalAlign=middle;resizable=0;points=[];" vertex="1" connectable="0" parent="gKutuNkxbsZDPIlpI9aO-52">
          <mxGeometry x="-0.2" y="-1" relative="1" as="geometry">
            <mxPoint x="-3" as="offset" />
          </mxGeometry>
        </mxCell>
        <mxCell id="gKutuNkxbsZDPIlpI9aO-56" value="" style="edgeStyle=orthogonalEdgeStyle;rounded=0;orthogonalLoop=1;jettySize=auto;html=1;" edge="1" parent="1" source="gKutuNkxbsZDPIlpI9aO-46" target="gKutuNkxbsZDPIlpI9aO-39">
          <mxGeometry relative="1" as="geometry" />
        </mxCell>
        <mxCell id="gKutuNkxbsZDPIlpI9aO-58" style="edgeStyle=orthogonalEdgeStyle;rounded=0;orthogonalLoop=1;jettySize=auto;html=1;entryX=0.5;entryY=0;entryDx=0;entryDy=0;" edge="1" parent="1" source="gKutuNkxbsZDPIlpI9aO-46" target="gKutuNkxbsZDPIlpI9aO-57">
          <mxGeometry relative="1" as="geometry" />
        </mxCell>
        <mxCell id="gKutuNkxbsZDPIlpI9aO-46" value="&lt;div style=&quot;text-align: justify;&quot;&gt;&lt;span style=&quot;background-color: initial;&quot;&gt;1、关联采购、请购信息&lt;/span&gt;&lt;/div&gt;&lt;div style=&quot;text-align: justify;&quot;&gt;&lt;span style=&quot;background-color: initial;&quot;&gt;1.关联执行人&lt;/span&gt;&lt;/div&gt;&lt;div style=&quot;text-align: justify;&quot;&gt;&lt;span style=&quot;background-color: initial;&quot;&gt;2.推断审核步骤&lt;/span&gt;&lt;/div&gt;&lt;div style=&quot;text-align: justify;&quot;&gt;&lt;span style=&quot;background-color: initial;&quot;&gt;3.设置审批流程为生效&lt;/span&gt;&lt;/div&gt;" style="whiteSpace=wrap;html=1;fillColor=#d5e8d4;strokeColor=#82b366;" vertex="1" parent="1">
          <mxGeometry x="320" y="330" width="110" height="130" as="geometry" />
        </mxCell>
        <mxCell id="gKutuNkxbsZDPIlpI9aO-54" style="edgeStyle=orthogonalEdgeStyle;rounded=0;orthogonalLoop=1;jettySize=auto;html=1;" edge="1" parent="1" source="gKutuNkxbsZDPIlpI9aO-51" target="gKutuNkxbsZDPIlpI9aO-19">
          <mxGeometry relative="1" as="geometry" />
        </mxCell>
        <mxCell id="gKutuNkxbsZDPIlpI9aO-51" value="请购、采购业务处理" style="rounded=0;whiteSpace=wrap;html=1;fillColor=#fff2cc;strokeColor=#d6b656;" vertex="1" parent="1">
          <mxGeometry x="115" y="380" width="80" height="30" as="geometry" />
        </mxCell>
        <mxCell id="gKutuNkxbsZDPIlpI9aO-57" value="发起审批后置事件" style="rounded=0;whiteSpace=wrap;html=1;fillColor=#fff2cc;strokeColor=#d6b656;" vertex="1" parent="1">
          <mxGeometry x="335" y="500" width="80" height="30" as="geometry" />
        </mxCell>
      </root>
    </mxGraphModel>
  </diagram>
</mxfile>
